<svg width="50" height="40" viewBox="0 0 50 40" fill="none" xmlns="http://www.w3.org/2000/svg">
<path d="M7.5 10.8645V5.4895C7.5 2.7395 9.75 0.489502 12.5 0.489502H37.5C40.25 0.489502 42.5 2.7395 42.5 5.4895V10.8895C39.6 11.9145 37.5 14.6645 37.5 17.9145V22.9895H12.5V17.8895C12.5 14.6645 10.4 11.8895 7.5 10.8645ZM45 12.9895C42.25 12.9895 40 15.2395 40 17.9895V25.4895H10V17.9895C10 16.6634 9.47322 15.3917 8.53553 14.454C7.59785 13.5163 6.32608 12.9895 5 12.9895C3.67392 12.9895 2.40215 13.5163 1.46447 14.454C0.526784 15.3917 0 16.6634 0 17.9895V30.4895C0 33.2395 2.25 35.4895 5 35.4895V40.4895H10V35.4895H40V40.4895H45V35.4895C47.75 35.4895 50 33.2395 50 30.4895V17.9895C50 15.2395 47.75 12.9895 45 12.9895Z" fill="#D14E0C"/>
</svg>
