<svg width="51" height="34" viewBox="0 0 51 34" fill="none" xmlns="http://www.w3.org/2000/svg">
<path d="M0.5 0.989502V30.9895H26.3C25.7688 29.3761 25.4987 27.6881 25.5 25.9895H10.5C10.5 24.6634 9.97322 23.3917 9.03553 22.454C8.09785 21.5163 6.82608 20.9895 5.5 20.9895V10.9895C8.275 10.9895 10.5 8.7645 10.5 5.9895H35.5C35.5 7.31559 36.0268 8.58735 36.9645 9.52504C37.9021 10.4627 39.1739 10.9895 40.5 10.9895V11.1395C42.175 11.1395 43.85 11.4395 45.5 11.9895V0.989502H0.5ZM23 8.4895C18.75 8.5645 15.5 11.7395 15.5 15.9895C15.5 20.2395 18.75 23.3395 23 23.4895C23.95 23.4895 24.925 23.2895 25.85 22.9145C26.525 20.1645 27.65 17.5645 30.425 15.0145C30.125 11.6895 26.975 8.4145 23 8.4895ZM47.075 16.6645L37.4 26.4145L34.025 22.9895L30.5 26.5395L37.375 33.4895L50.575 20.1895L47.075 16.6645Z" fill="#D14E0C"/>
</svg>
