<svg width="48" height="46" viewBox="0 0 48 46" fill="none" xmlns="http://www.w3.org/2000/svg">
<path d="M21.4998 8.9895H28.9998L37.2248 0.739496C37.4572 0.505175 37.7337 0.319189 38.0384 0.192267C38.343 0.0653456 38.6698 0 38.9998 0C39.3299 0 39.6566 0.0653456 39.9613 0.192267C40.2659 0.319189 40.5424 0.505175 40.7748 0.739496L47.2248 7.2145C47.6905 7.6829 47.9518 8.31653 47.9518 8.977C47.9518 9.63746 47.6905 10.2711 47.2248 10.7395L41.4998 16.4895H21.4998V21.4895C21.4998 22.1525 21.2364 22.7884 20.7676 23.2573C20.2988 23.7261 19.6629 23.9895 18.9998 23.9895C18.3368 23.9895 17.7009 23.7261 17.2321 23.2573C16.7632 22.7884 16.4998 22.1525 16.4998 21.4895V13.9895C16.4998 12.6634 17.0266 11.3916 17.9643 10.454C18.902 9.51628 20.1737 8.9895 21.4998 8.9895ZM6.49983 21.4895V31.4895L0.774833 37.2145C0.309206 37.6829 0.0478516 38.3165 0.0478516 38.977C0.0478516 39.6375 0.309206 40.2711 0.774833 40.7395L7.22483 47.2145C7.45724 47.4488 7.73374 47.6348 8.03839 47.7617C8.34304 47.8886 8.6698 47.954 8.99983 47.954C9.32986 47.954 9.65663 47.8886 9.96128 47.7617C10.2659 47.6348 10.5424 47.4488 10.7748 47.2145L21.4998 36.4895H31.4998C32.1629 36.4895 32.7988 36.2261 33.2676 35.7573C33.7364 35.2884 33.9998 34.6525 33.9998 33.9895V31.4895H36.4998C37.1629 31.4895 37.7988 31.2261 38.2676 30.7573C38.7364 30.2884 38.9998 29.6525 38.9998 28.9895V26.4895H41.4998C42.1629 26.4895 42.7988 26.2261 43.2676 25.7573C43.7364 25.2884 43.9998 24.6525 43.9998 23.9895V21.4895H26.4998V23.9895C26.4998 25.3156 25.973 26.5873 25.0354 27.525C24.0977 28.4627 22.8259 28.9895 21.4998 28.9895H16.4998C15.1737 28.9895 13.902 28.4627 12.9643 27.525C12.0266 26.5873 11.4998 25.3156 11.4998 23.9895V16.4895L6.49983 21.4895Z" fill="#D14E0C"/>
</svg>
