<svg width="36" height="54" viewBox="0 0 36 54" fill="none" xmlns="http://www.w3.org/2000/svg">
<path d="M1.22857 39.7061C0.036743 35.5568 3.8312 25.9315 5.11455 27.0091C6.3979 28.0867 6.28273 36.532 10.5365 37.1669C14.7903 37.8018 17.6914 35.3646 17.6914 35.3646C17.6914 35.3646 19.7229 37.8192 23.9767 37.1844C28.2305 36.5495 30.2686 25.7959 32.0654 27.0089C33.8621 28.2219 35.6603 37.7904 34.7605 40.2165C33.8607 42.6427 31.8181 45.5228 28.8233 47.9308C25.6464 50.4852 22.1515 52.7828 18.1254 52.7828C14.0993 52.7828 7.81065 48.2456 7.34434 47.9308C6.87804 47.616 2.4204 43.8555 1.22857 39.7061Z" fill="#D14E0C" stroke="#D14E0C"/>
<path d="M9.05249 31.5479C5.45898 30.9414 5.45898 29.1218 5.45898 29.1218C5.45898 29.1218 7.25574 29.7284 9.05249 29.1218C10.8492 28.5153 10.8492 26.6958 12.646 26.6958C14.4428 26.6958 18.0363 27.9088 18.0363 27.9088C18.0363 27.9088 21.6298 26.6958 23.4265 26.6958C25.2233 26.6958 25.2233 28.5153 27.02 29.1218C28.8168 29.7284 30.6136 29.1218 30.6136 29.1218C30.6136 29.1218 30.6136 30.9414 27.02 31.5479C23.4265 32.1544 18.0363 29.1218 18.0363 29.1218C18.0363 29.1218 12.646 32.1544 9.05249 31.5479Z" fill="#D14E0C" stroke="#D14E0C"/>
<path d="M8.65375 17.0034C5.8117 15.515 4.75242 13.8878 4.91858 10.5159C5.08474 7.14403 10.8289 4.16461 14.9947 5.24692C19.1605 6.32923 22.4659 10.4103 31.656 2C31.656 2 31.656 10.5159 26.7323 15.5145C21.8086 20.5131 11.4958 18.4918 8.65375 17.0034Z" fill="white" stroke="white"/>
</svg>
