<svg width="11" height="17" viewBox="0 0 11 17" fill="none" xmlns="http://www.w3.org/2000/svg">
<path d="M1.614 2.14303C1.52852 2.09286 1.45383 2.02624 1.39426 1.94703C1.33468 1.86782 1.29139 1.77759 1.2669 1.68155C1.24241 1.58551 1.23719 1.48556 1.25156 1.38749C1.26593 1.28942 1.2996 1.19518 1.35061 1.1102C1.40162 1.02522 1.46897 0.951193 1.54877 0.892402C1.62857 0.833611 1.71923 0.791219 1.81551 0.767678C1.91178 0.744136 2.01177 0.739912 2.1097 0.75525C2.20762 0.770587 2.30153 0.805181 2.386 0.857033C3.733 1.66503 4.726 2.64203 5.366 3.99203C5.996 5.32203 6.25 6.94703 6.25 9.00003V14.44L8.97 11.72C9.03866 11.6463 9.12146 11.5872 9.21346 11.5463C9.30546 11.5053 9.40477 11.4832 9.50548 11.4814C9.60618 11.4797 9.70621 11.4982 9.7996 11.5359C9.89299 11.5736 9.97782 11.6298 10.049 11.701C10.1203 11.7722 10.1764 11.857 10.2141 11.9504C10.2518 12.0438 10.2704 12.1439 10.2686 12.2446C10.2668 12.3453 10.2448 12.4446 10.2038 12.5366C10.1628 12.6286 10.1037 12.7114 10.03 12.78L6.03 16.78C5.88937 16.9205 5.69875 16.9994 5.5 16.9994C5.30125 16.9994 5.11062 16.9205 4.97 16.78L0.969999 12.78C0.837519 12.6379 0.765396 12.4498 0.768824 12.2555C0.772252 12.0612 0.850964 11.8758 0.988377 11.7384C1.12579 11.601 1.31118 11.5223 1.50548 11.5189C1.69978 11.5154 1.88782 11.5876 2.03 11.72L4.75 14.44V9.00003C4.75 7.05303 4.505 5.67903 4.01 4.63403C3.524 3.60803 2.767 2.83503 1.614 2.14403V2.14303Z" fill="#D14E0C"/>
</svg>
