<svg width="24" height="24" viewBox="0 0 24 24" fill="none" xmlns="http://www.w3.org/2000/svg">
<path d="M12.0859 0.09375C14.0859 0.09375 15.7187 0.117187 16.9844 0.164062C18.0625 0.210937 19.0234 0.398437 19.8672 0.726562C20.6797 1.03906 21.3828 1.49219 21.9766 2.08594C22.5703 2.67969 23.0234 3.38281 23.3359 4.19531C23.6641 5.03906 23.8516 6 23.8984 7.07812C23.9453 8.34375 23.9687 9.97656 23.9687 11.9766C23.9687 13.9766 23.9453 15.6094 23.8984 16.875C23.8516 17.9531 23.6641 18.9141 23.3359 19.7578C23.0234 20.5703 22.5703 21.2734 21.9766 21.8672C21.3828 22.4609 20.6797 22.9141 19.8672 23.2266C19.0234 23.5547 18.0625 23.7422 16.9844 23.7891C15.7187 23.8359 14.0859 23.8594 12.0859 23.8594C10.0859 23.8594 8.45312 23.8359 7.1875 23.7891C6.10937 23.7422 5.14844 23.5547 4.30469 23.2266C3.49219 22.9141 2.78906 22.4609 2.19531 21.8672C1.60156 21.2734 1.14844 20.5703 0.835937 19.7578C0.507812 18.9141 0.320312 17.9531 0.273437 16.875C0.226562 15.6094 0.203125 13.9766 0.203125 11.9766C0.203125 9.97656 0.226562 8.34375 0.273437 7.07812C0.320312 6 0.507812 5.03906 0.835937 4.19531C1.14844 3.38281 1.60156 2.67969 2.19531 2.08594C2.78906 1.49219 3.49219 1.03906 4.30469 0.726562C5.14844 0.398437 6.10937 0.210937 7.1875 0.164062C8.45312 0.117187 10.0859 0.09375 12.0859 0.09375ZM12.0859 1.64062C10.0078 1.64062 8.3125 1.66406 7 1.71094C6.15625 1.74219 5.375 1.89062 4.65625 2.15625C3.53125 2.625 2.73437 3.42187 2.26562 4.54687C2 5.26562 1.85156 6.04687 1.82031 6.89062C1.77344 8.20312 1.75 9.89844 1.75 11.9766C1.75 14.0547 1.77344 15.75 1.82031 17.0625C1.85156 17.9062 2 18.6875 2.26562 19.4062C2.73437 20.5312 3.53125 21.3281 4.65625 21.7969C5.375 22.0625 6.15625 22.2109 7 22.2422C8.3125 22.2891 10.0078 22.3125 12.0859 22.3125C14.1641 22.3125 15.8594 22.2891 17.1719 22.2422C18.0156 22.2109 18.7969 22.0625 19.5156 21.7969C20.6406 21.3281 21.4375 20.5312 21.9062 19.4062C22.1719 18.6875 22.3203 17.9062 22.3516 17.0625C22.3984 15.75 22.4219 14.0547 22.4219 11.9766C22.4219 9.89844 22.3984 8.20312 22.3516 6.89062C22.3203 6.04687 22.1719 5.26562 21.9062 4.54687C21.4375 3.42187 20.6406 2.625 19.5156 2.15625C18.7969 1.89062 18.0156 1.74219 17.1719 1.71094C15.8594 1.66406 14.1641 1.64062 12.0859 1.64062ZM12.0859 16.7344C13.3984 16.7344 14.5195 16.2695 15.4492 15.3398C16.3789 14.4102 16.8437 13.2891 16.8437 11.9766C16.8437 10.6641 16.3789 9.54297 15.4492 8.61328C14.5195 7.68359 13.3984 7.21875 12.0859 7.21875C10.7734 7.21875 9.65234 7.68359 8.72266 8.61328C7.79297 9.54297 7.32812 10.6641 7.32812 11.9766C7.32812 13.2891 7.79297 14.4102 8.72266 15.3398C9.65234 16.2695 10.7734 16.7344 12.0859 16.7344ZM12.0859 5.88281C13.7734 5.88281 15.2109 6.47656 16.3984 7.66406C17.5859 8.85156 18.1797 10.2891 18.1797 11.9766C18.1797 13.6641 17.5859 15.1016 16.3984 16.2891C15.2109 17.4766 13.7734 18.0703 12.0859 18.0703C10.3984 18.0703 8.96094 17.4766 7.77344 16.2891C6.58594 15.1016 5.99219 13.6641 5.99219 11.9766C5.99219 10.2891 6.58594 8.85156 7.77344 7.66406C8.96094 6.47656 10.3984 5.88281 12.0859 5.88281ZM19.8672 5.64844C19.8672 6.03906 19.7266 6.37109 19.4453 6.64453C19.1641 6.91797 18.8203 7.05469 18.4141 7.05469C18.0234 7.05469 17.6914 6.91797 17.418 6.64453C17.1445 6.37109 17.0078 6.03906 17.0078 5.64844C17.0078 5.24219 17.1445 4.89844 17.418 4.61719C17.6914 4.33594 18.0234 4.19531 18.4141 4.19531C18.8047 4.19531 19.1445 4.33984 19.4336 4.62891C19.7227 4.91797 19.8672 5.25781 19.8672 5.64844Z" fill="white"/>
</svg>
