<svg width="24" height="24" viewBox="0 0 24 24" fill="none" xmlns="http://www.w3.org/2000/svg">
<path d="M16.0313 2.54461C17.2813 2.54461 18.336 3.04461 19.1954 4.04461C20.1641 3.83032 21.0704 3.44639 21.9141 2.89282C21.586 4.03568 20.961 4.91068 20.0391 5.51782C20.8985 5.41068 21.7188 5.16068 22.5 4.76782C22.3125 5.08925 22.1055 5.39729 21.879 5.69193C21.6524 5.98657 21.4102 6.26336 21.1524 6.52229C20.8946 6.78121 20.625 7.02675 20.3438 7.25889C20.3594 7.47318 20.3672 7.67854 20.3672 7.87496C20.3672 8.92854 20.2461 9.99104 20.004 11.0625C19.7618 12.1339 19.4102 13.1785 18.9493 14.1964C18.4883 15.2142 17.9024 16.1607 17.1915 17.0357C16.4805 17.9107 15.6836 18.6785 14.8008 19.3392C13.918 20 12.9024 20.5178 11.7539 20.8928C10.6055 21.2678 9.39067 21.4553 8.10942 21.4553C5.71879 21.4553 3.51567 20.741 1.50004 19.3125C1.67192 19.3303 1.83988 19.3482 2.00395 19.366C2.16801 19.3839 2.34379 19.3928 2.53129 19.3928C4.53129 19.3928 6.31254 18.7053 7.87504 17.3303C6.93754 17.3125 6.1016 16.9955 5.36723 16.3794C4.63285 15.7634 4.12504 14.9732 3.84379 14.0089C3.93754 14.0267 4.02738 14.0446 4.11332 14.0625C4.19926 14.0803 4.2891 14.0937 4.38285 14.1026C4.4766 14.1116 4.57035 14.116 4.6641 14.116C5.05473 14.116 5.42973 14.0535 5.7891 13.9285C4.80473 13.7142 3.98442 13.1696 3.32817 12.2946C2.67192 11.4196 2.34379 10.4017 2.34379 9.24104V9.18746C2.95317 9.56246 3.6016 9.75889 4.2891 9.77675C3.89848 9.49104 3.56254 9.14729 3.28129 8.7455C3.00004 8.34371 2.77738 7.88836 2.61332 7.37943C2.44926 6.8705 2.36723 6.34818 2.36723 5.81246C2.36723 5.38389 2.41801 4.96425 2.51957 4.55354C2.62113 4.14282 2.76567 3.75889 2.95317 3.40175C4.03129 4.88389 5.33988 6.06246 6.87895 6.93746C8.41801 7.81246 10.0704 8.30354 11.836 8.41068C11.7579 8.05354 11.7188 7.68746 11.7188 7.31246C11.7188 5.99104 12.1407 4.86604 12.9844 3.93746C13.8282 3.00889 14.8438 2.54461 16.0313 2.54461ZM16.0313 0.830322C14.5782 0.830322 13.3047 1.3705 12.211 2.45086C11.1172 3.53121 10.4766 4.86604 10.2891 6.45532C7.77348 5.88389 5.71098 4.49996 4.1016 2.30354C3.80473 1.89282 3.42192 1.68747 2.95317 1.68747L2.83598 1.71425C2.32035 1.74997 1.92973 2.01782 1.6641 2.51782C1.13285 3.53568 0.867228 4.63389 0.867228 5.81246C0.867228 6.58032 0.984415 7.32139 1.21879 8.03568C0.96879 8.37496 0.84379 8.75889 0.84379 9.18746V9.24104C0.84379 10.9375 1.35942 12.4107 2.39067 13.6607C2.35942 13.8035 2.3477 13.9509 2.35551 14.1026C2.36332 14.2544 2.38285 14.4017 2.4141 14.5446C2.75785 15.7053 3.33598 16.6785 4.14848 17.4642C3.88285 17.5357 3.61332 17.5892 3.33988 17.625C3.06645 17.6607 2.79692 17.6785 2.53129 17.6785C2.21879 17.6785 1.92973 17.6607 1.6641 17.625L1.50004 17.5982C1.17192 17.5982 0.878946 17.7053 0.621134 17.9196C0.363321 18.1339 0.179728 18.4107 0.0703525 18.75C-0.0390225 19.125 -0.0351163 19.5044 0.0820713 19.8884C0.199259 20.2723 0.40629 20.5625 0.703165 20.7589C2.95317 22.366 5.42192 23.1696 8.10942 23.1696C9.76567 23.1696 11.3282 22.8884 12.7969 22.3259C14.2657 21.7634 15.5391 20.991 16.6172 20.0089C17.6954 19.0267 18.629 17.8973 19.418 16.6205C20.2071 15.3437 20.8086 13.9776 21.2227 12.5223C21.6368 11.0669 21.8516 9.58925 21.8672 8.08925C22.5704 7.42854 23.1797 6.66961 23.6954 5.81246C23.8047 5.66961 23.8829 5.50889 23.9297 5.33032C23.9766 5.15175 24 4.96425 24 4.76782C24 4.17854 23.7891 3.71425 23.3672 3.37496C23.4141 3.14282 23.4297 2.91961 23.4141 2.70532C23.3985 2.49104 23.3438 2.28121 23.25 2.07586C23.1563 1.8705 23.0313 1.69639 22.875 1.55354C22.5938 1.30354 22.2735 1.17854 21.9141 1.17854C21.8516 1.17854 21.7891 1.183 21.7266 1.19193C21.6641 1.20086 21.6016 1.21425 21.5391 1.23211C21.4766 1.24997 21.4141 1.27229 21.3516 1.29907C21.2891 1.32586 21.2266 1.35711 21.1641 1.39282C20.6797 1.73211 20.1563 1.99104 19.5938 2.16961C18.5313 1.27675 17.3438 0.830322 16.0313 0.830322Z" fill="white"/>
</svg>
