<svg width="25" height="25" viewBox="0 0 25 25" fill="none" xmlns="http://www.w3.org/2000/svg">
<path d="M0.466797 3.78176C0.466797 2.57466 0.925295 1.92377 1.84229 1.82909L5.37589 1.8646C5.61304 1.8646 5.77114 2.04211 5.8502 2.39714C6.21383 4.17229 6.62095 5.70483 7.07154 6.99477C7.52213 8.28471 8.11107 9.76992 8.83834 11.4504C8.90158 11.6634 9.00435 11.7699 9.14664 11.7699C9.25731 11.7699 9.34427 11.6871 9.40751 11.5214L9.47865 11.1309L9.50237 4.98886C9.50237 4.56282 9.43518 4.2788 9.30079 4.13679C9.1664 3.99477 8.91739 3.88826 8.55375 3.81726C8.26917 3.74625 8.12688 3.4859 8.12688 3.03619C8.12688 2.94152 8.13478 2.87051 8.15059 2.82318C8.48261 1.28471 9.43122 0.515483 10.9964 0.515483L12.3245 0.47998C12.9253 0.47998 13.4233 0.704833 13.8186 1.15454C14.2138 1.60424 14.4115 2.3143 14.4115 3.28471V11.3439C14.5221 11.4622 14.6249 11.5214 14.7198 11.5214C14.9569 11.5214 15.1624 11.3084 15.3364 10.8823C17.0755 7.23738 18.0162 4.79951 18.1585 3.56874C18.1585 3.54507 18.1743 3.4859 18.2059 3.39122C18.3166 3.03619 18.4984 2.7285 18.7514 2.46815C19.0043 2.20779 19.2257 2.03028 19.4154 1.9356C19.4787 1.88826 19.5498 1.8646 19.6289 1.8646H23.3047L23.5419 1.9001C23.8581 1.9001 24.1032 2.12495 24.2771 2.57466C24.3403 2.71667 24.3838 2.87051 24.4075 3.03619C24.4312 3.20187 24.447 3.36755 24.4549 3.53323C24.4628 3.69892 24.4668 3.79359 24.4668 3.81726V4.06578C24.3561 5.03619 24.0755 6.0717 23.6249 7.17229C23.1743 8.27288 22.6012 9.46223 21.9055 10.7403C21.2099 12.0184 20.7751 12.8587 20.6012 13.261C20.4589 13.5451 20.3877 13.8054 20.3877 14.0421C20.3877 14.2315 20.451 14.4445 20.5775 14.6812L24.0399 21.2137C24.2296 21.5924 24.3245 22.0066 24.3245 22.4563C24.3245 23.0007 24.1822 23.4504 23.8976 23.8054C23.613 24.1605 23.2731 24.3616 22.8779 24.409L22.4747 24.4445H18.87C18.8541 24.4445 18.8225 24.4504 18.7751 24.4622C18.7277 24.4741 18.696 24.48 18.6802 24.48C18.3324 24.48 18.0083 24.2551 17.7079 23.8054C17.5972 23.6161 16.8541 22.2196 15.4787 19.6161C15.3996 19.4504 15.2889 19.2965 15.1466 19.1545C15.0834 19.5332 15.0004 20.0776 14.8976 20.7877C14.7949 21.4977 14.7198 22.0066 14.6723 22.3143L14.6012 22.9179C14.4431 23.7463 14.1111 24.2433 13.6051 24.409L13.2731 24.4445H10.949C9.63676 24.4445 8.32846 23.5451 7.02411 21.7463C5.71976 19.9474 4.54585 17.622 3.50237 14.7699C2.45889 11.9179 1.48656 8.59832 0.585374 4.81134C0.506323 4.50365 0.466797 4.16045 0.466797 3.78176ZM14.7198 12.977C14.3877 12.977 14.0873 12.8409 13.8186 12.5687C13.5498 12.2965 13.4154 11.9238 13.4154 11.4504V3.28471C13.4154 2.81134 13.3364 2.47406 13.1783 2.27288C13.0202 2.0717 12.7435 1.9711 12.3482 1.9711L10.9964 2.04211C10.3166 2.04211 9.80276 2.21963 9.45494 2.57466C10.1506 3.0717 10.4984 3.87643 10.4984 4.98886V11.2374C10.4668 11.8291 10.3087 12.3202 10.0241 12.7107C9.73952 13.1013 9.42332 13.2965 9.07549 13.2965C8.60118 13.2965 8.23755 12.9534 7.98458 12.267C6.75138 9.47406 5.83439 6.82318 5.23359 4.3143L5.02016 3.39122L1.86601 3.35572C1.66047 3.35572 1.54585 3.37347 1.52213 3.40897C1.49842 3.44448 1.48656 3.54507 1.48656 3.71075C1.48656 3.92377 1.50237 4.14862 1.53399 4.38531L2.03201 6.37347C3.36008 11.5096 4.80277 15.5569 6.36008 18.5155C7.91739 21.4741 9.44703 22.9534 10.949 22.9534H13.3206C13.4154 22.9534 13.4866 22.9119 13.534 22.8291C13.5814 22.7463 13.6209 22.5865 13.6526 22.3498L13.7 21.9948L14.1506 18.8705C14.2771 18.4445 14.3877 18.1605 14.4826 18.0184C14.6565 17.7581 14.8621 17.6279 15.0992 17.6279C15.4787 17.6279 15.866 17.9711 16.2613 18.6575L18.2771 22.4918C18.4036 22.7995 18.5379 22.9534 18.6802 22.9534H22.5933C23.0676 22.9534 23.3047 22.7758 23.3047 22.4208C23.3047 22.3025 23.281 22.1841 23.2336 22.0658L19.7949 15.6397C19.5261 15.1427 19.3917 14.6102 19.3917 14.0421C19.3917 13.4741 19.5182 12.9297 19.7711 12.409C19.9767 11.9356 20.3759 11.1486 20.9688 10.048C21.5617 8.94744 22.0794 7.91785 22.5221 6.95927C22.9648 6.00069 23.2573 5.13087 23.3996 4.3498L23.4707 3.88826C23.4549 3.84093 23.447 3.764 23.447 3.6575C23.447 3.55099 23.4391 3.46223 23.4233 3.39122H19.7C19.4628 3.53323 19.2731 3.74625 19.1308 4.03028L18.9885 4.70483C18.5933 6.33797 17.5577 8.85868 15.8818 12.267C15.5498 12.7403 15.1624 12.977 14.7198 12.977Z" fill="white"/>
</svg>
